# wireframe diamond: 4 straight edges, radius 1.0
v 0.03182 1.03182 0.045
v 0.03182 1.03182 -0.045
v -0.03182 0.96818 0.045
v -0.03182 0.96818 -0.045
v 1.03182 0.03182 0.045
v 1.03182 0.03182 -0.045
v 0.96818 -0.03182 0.045
v 0.96818 -0.03182 -0.045
v 1.03182 -0.03182 0.045
v 1.03182 -0.03182 -0.045
v 0.96818 0.03182 0.045
v 0.96818 0.03182 -0.045
v 0.03182 -1.03182 0.045
v 0.03182 -1.03182 -0.045
v -0.03182 -0.96818 0.045
v -0.03182 -0.96818 -0.045
v -0.03182 -1.03182 0.045
v -0.03182 -1.03182 -0.045
v 0.03182 -0.96818 0.045
v 0.03182 -0.96818 -0.045
v -1.03182 -0.03182 0.045
v -1.03182 -0.03182 -0.045
v -0.96818 0.03182 0.045
v -0.96818 0.03182 -0.045
v -1.03182 0.03182 0.045
v -1.03182 0.03182 -0.045
v -0.96818 -0.03182 0.045
v -0.96818 -0.03182 -0.045
v -0.03182 1.03182 0.045
v -0.03182 1.03182 -0.045
v 0.03182 0.96818 0.045
v 0.03182 0.96818 -0.045
f 1 3 7
f 1 7 5
f 2 6 8
f 2 8 4
f 1 5 6
f 1 6 2
f 3 4 8
f 3 8 7
f 9 11 15
f 9 15 13
f 10 14 16
f 10 16 12
f 9 13 14
f 9 14 10
f 11 12 16
f 11 16 15
f 17 19 23
f 17 23 21
f 18 22 24
f 18 24 20
f 17 21 22
f 17 22 18
f 19 20 24
f 19 24 23
f 25 27 31
f 25 31 29
f 26 30 32
f 26 32 28
f 25 29 30
f 25 30 26
f 27 28 32
f 27 32 31
